<svg version="1" xmlns="http://www.w3.org/2000/svg" viewBox="0 0 50 50"><path fill="#fc9d9a" d="M6.4 36.7l1.3 10.9c.1.8.7 1.4 1.5 1.4h18.3c.8 0 1.5-.6 1.5-1.4l1.6-17.5v-.2c.1-.6.2-1.1.4-1.7.1-.2.2-.5.3-.7L6.4 36.7z"/><path fill="#e28d8a" d="M7.6 46.5l.1 1.1c.1.8.7 1.4 1.5 1.4h18.3c.8 0 1.5-.6 1.5-1.4l.8-9.2-22.2 8.1z"/><path fill="#444" d="M47.1 19.8c0-.5-.1-1-.2-1.4-.7-2.6-3-4.4-5.6-4.4-.4 0-.8 0-1.1.1-.6.1-1.2.3-1.7.6-1.8 1-3 3-3 5.1 0 .5.1 1 .2 1.5.2.6.4 1.1.7 1.6-2.9.3-5.4 2.2-6.5 5-.2.6-.4 1.3-.5 1.9l-1.6 17.7c0 .3-.2.5-.5.5H9c-.3 0-.5-.2-.5-.5L5 18c0-.2.1-.3.1-.4.1-.1.2-.2.4-.2h24.9c.2 0 .3.1.4.2.1.1.1.2.1.4-.1.6.4 1.1.9 1.1.6 0 1.1-.4 1.1-.9.1-.7-.2-1.4-.7-2-.5-.5-1.2-.8-1.9-.8H5.5c-.7 0-1.4.3-1.9.9-.5.5-.7 1.3-.6 2l3.5 29.5C6.5 49 7.6 50 9 50h18.3c1.3 0 2.4-1 2.6-2.4l1.5-17.4V30c.1-.5.2-1 .3-1.4.9-2.5 3.4-4 6-3.7.8.1 1.5.3 2.2.7 2 1.1 3.2 3.4 2.9 5.7-.2 1.5-.9 2.9-2.1 3.9-1.2 1-2.7 1.4-4.3 1.2-.6-.1-1.1-.2-1.6-.4s-1.1 0-1.4.5c-.2.5 0 1.1.5 1.4.7.3 1.5.5 2.3.6 2.1.2 4.1-.4 5.8-1.7 1.6-1.3 2.7-3.2 2.9-5.3.3-2.3-.5-4.6-2-6.2.9-.3 1.6-.7 2.3-1.3 1.2-1.1 1.9-2.6 1.9-4.2zm-3.3 2.7c-.7.7-1.6 1-2.6 1H41c-1.6-.1-3-1.2-3.4-2.8-.1-.3-.1-.6-.1-1 0-1.4.7-2.6 1.9-3.3.4-.2.7-.3 1.1-.4.2 0 .5-.1.7-.1 1.7 0 3.2 1.2 3.6 2.8.1.3.1.6.1.9.1 1.2-.3 2.2-1.1 2.9zM17.3 10.2c-.5.3-.5 1-.2 1.4.2.3.5.4.8.4.2 0 .4-.1.6-.2.1-.1 2.5-1.9 2.5-5.9C21 2 18.6.1 18.5 0c-.5-.3-1.1-.2-1.4.2-.3.5-.3 1.1.2 1.5.1.2 1.7 1.5 1.7 4.4 0 2.8-1.6 4.1-1.7 4.1z"/></svg>